<svg version="1" xmlns="http://www.w3.org/2000/svg" width="853.333" height="566.667" viewBox="0 0 640 425"><path d="M0 6.1c0 4.5.3 5.9 1.3 5.5.6-.2 2.9-1 4.9-1.7 2-.6 5.9-3.1 8.5-5.5L19.5 0H0v6.1zm111.3-1.9c3 6.2 3.2 22.3.2 28.8-1.9 4.2-2 6.1-1.7 30.2.2 14.2.1 27.2-.3 28.9-.7 3.1-.8 3.1-5.3 2.5-2.5-.3-5.4-1.4-6.5-2.4-1-.9-2.1-1.6-2.3-1.4-.2.2-1.7.1-3.3-.3-1.9-.4-3.5-1.9-5-4.6-3.9-6.9-5.4-15.2-5.6-31.9-.2-8.5-.8-17.1-1.4-19-.6-1.9-1.1-6-1.1-9.1 0-6.4-1.8-17-3-18.3-1.8-1.8-2 2.1-1.1 20.4.7 15.2 1.2 19.3 2.9 23.1 2 4.5 2 4.7.2 8.6-1 2.2-2.3 4.4-2.9 4.7-.6.4-1.1 1.6-1.1 2.6 0 1.1-.9 2.4-2.1 3-1.7 1-2.7.7-5.8-1.4-2-1.4-4-2.6-4.4-2.6-1.5 0-6.7-4.4-6.7-5.7 0-.7-.3-1.3-.8-1.3-1.3 0-3-5.3-3.7-11.4-.4-3.2-1.3-7.7-2.1-9.9-.9-2.7-1.2-6.1-.9-10.1.3-3.4.2-7.4-.3-9.1l-.8-3-1.7 4.9C43.8 23.1 43 27 43 29c0 2.4-.7 4.3-1.9 5.4-1.8 1.7-1.8 1.8 1.5 6.7 1.8 2.7 3.6 6.7 3.9 8.7.3 2 1.5 7.6 2.6 12.3 2.4 10.3 2.2 19.2-.4 19.7-1 .2-1.7 0-1.6-.5.7-3.7-4.3-6.2-11.2-5.6-4.4.4-4.8.3-7.9-3.7-5.8-7.3-7.6-16.4-4.5-22.4 1.5-2.8 1.4-3.1-.8-5.5-1.7-1.8-2.6-4.2-3-8.1-.6-6.3-3.3-13.4-4.7-12.5-2.4 1.5.6 33.8 3.9 42.7.4 1.3 1.4 5.3 2.1 9.1 1 5.7 1.9 7.5 5.7 11.7 5.2 5.7 5.1 8 0 8-3.4 0-8.7-3.2-8.7-5.2 0-2.7-5.2-7.8-9.1-8.8-2.3-.6-5.2-2.3-6.5-3.7L0 74.7v134.1l2.8.7c3.3.8 88.6 31.4 99.7 35.7 24.8 9.7 29.9 13.7 68.5 54.3C234.9 366.8 291.2 425 292.3 425c.6 0 0-1.2-1.4-2.6l-2.4-2.6 4 1.7c2.2.9 5 2.1 6.3 2.6 1.3.5 5.3.9 8.9.9h6.5l-.6-2.6c-.6-2.4-.5-2.6 1.6-1.9 6.7 2.1 8.5 1.8 17.3-3 8.6-4.7 8.7-4.8 8.2-8.1l-.6-3.3 4.2 1.6c5.1 1.9 6.8 3.3 4.2 3.3-3.9 0-21.5 10.8-21.5 13.2 0 .4 11 .8 24.5.8s24.5-.3 24.5-.6-.4-1.3-.9-2.3c-.9-1.6-.5-1.7 3.7-1.7 3.8.1 6-.7 11.2-3.8 3.6-2.2 7.6-4.6 8.9-5.4 1.7-1 2-1.7 1.2-2.5-1.9-1.9-1.2-2.6 2.3-2 2.9.4 5-.3 12.6-4.7 7.2-4.1 9-5.6 8.5-7-.5-1.5 0-1.7 3.2-1.7 4.6.1 19.3-7.8 19.3-10.4 0-1.1 1.2-1.8 3.8-2.2 3.6-.5 18.2-8.2 18.2-9.7 0-1.8-4.3-4-14.2-7.5-10.3-3.6-13.6-4-18-2-1.5.6-1.8.2-1.8-1.9 0-3.1-1.1-3.8-15.4-8.6-7.8-2.7-11.5-3.6-12.8-2.9-2.8 1.5-4.6 1-5-1.4-.2-1.8-2.2-2.9-11.8-6.4-11-4.1-13.3-4.5-17.2-2.8-1.2.5-1.8.3-1.8-.6 0-3-2.2-4.2-16.5-9.5-12-4.4-15.6-5.4-18.6-4.9-3.1.5-3.7.3-4.2-1.4-.6-2.6 1.7-1.7-43.7-17.5-21.2-7.4-49.7-17.6-63.5-22.6-13.7-5.1-26.8-9.5-29-9.7-2.2-.3-4.7-1.1-5.5-1.8-2.6-2.2-24.5-10.5-27.8-10.5-2 0-3.5-.7-4.1-1.8-.9-1.7-16.7-8.9-20.8-9.5-1.1-.2-2.9-.9-3.8-1.7-1-.8-3.4-2.2-5.4-3.1l-3.6-1.7 3 .1c1.7.1 3.3.5 3.6 1 .4.5 7.1 1.1 15 1.4 14.2.6 14.5.5 18.1-1.9 2-1.4 3.4-2.8 3.1-3.2-.4-.3-.2-.6.4-.6.5 0 2-.9 3.3-2 2.7-2.4 4.6-2.6 5.3-.5.4.8-.5 2.3-2 3.5-2.6 2-1.8 2.5 2.5 1.4 1.2-.4 2.5-1.7 2.8-2.9.6-2.5-2.9-11.5-4.5-11.5-1.7 0-7.1 6.1-7.1 8 0 2.6-3 3.4-5.2 1.3-1.3-1.2-1.8-2.7-1.6-4.5.5-2.8.4-2.8-1.4-.8-2.1 2.3-3.4 2.4-9.8 1-7.2-1.6-9.9-3-9.3-4.7.4-.9-1.1-3-4.1-5.8-4-3.6-4.6-4.7-4-6.9.5-2.3-.4-3.7-7.5-10.9-4.5-4.6-8.1-8.9-8.1-9.6 0-1.4 5.9-4.1 9-4.1 1.1 0 2-.5 2-1 0-.6.7-1 1.7-1 1.5 0 1.5-.1 0-1.8-2.4-2.6-2.1-3.7 1-4 4.2-.3 4.6-1.6 1.4-4.6-2.5-2.4-2.8-3.1-1.8-4.9.9-1.5.9-2.1-.1-2.4-1-.4-1-.8-.1-1.9.7-.8.9-1.7.5-2.1-.3-.4.8-1.2 2.5-1.7 4.5-1.5 5.9-4.1 3.4-6-1.1-.9-2.7-1.6-3.6-1.6-2.4 0-6.2-3.7-5.6-5.4.5-1.2 1.9-1.4 6.3-1.1 5.2.4 5.6.3 5.1-1.5-.3-1.1-.4-2-.3-2 0 0 1.6-.4 3.4-.9 3-.9 3.2-.8 2.7 1-.5 1.6-.2 1.9 2.2 1.9 1.6 0 3.4-.5 4-1.1.8-.8 3.3-.8 9.3 0 4.5.6 8.6.9 9 .6.5-.3 3.2.4 6 1.5s6.1 2 7.3 2c1.2 0 4 .9 6.2 1.9 10.8 5.2 13.6 6.1 17.7 6.1 2.5 0 6.3.7 8.4 1.6 2.2.9 4.1 1.6 4.4 1.6 1.3 0 4.9 1.8 5.4 2.7.4.5 2.8 1.3 5.4 1.7 2.6.4 4.9 1 5.2 1.4.8 1.1 11.7 6 13.4 6 .8 0 4.6 1.2 8.3 2.6 3.7 1.4 9 3.1 11.6 3.9 2.6.7 5.4 1.8 6.2 2.5.7.6 1.7 1 2.1.8.5-.1 3.2.4 6 1.2 3.6.9 5.6 2.1 6.7 3.9.9 1.4 3.7 4.8 6.2 7.4 2.5 2.6 4.5 5.4 4.5 6.1 0 .7.9 2.1 1.9 3 1.1 1 2.5 3.2 3.2 4.9.7 1.8 2.6 5.4 4.2 8.1 1.8 3.2 2.5 5.2 1.8 5.9-1.5 1.5-4.2.1-3.4-1.9.5-1.3.3-1.6-1-1.1-.9.3-1.7.2-1.7-.3s-1.7-1.2-3.7-1.5c-2.1-.4-5.9-1.2-8.5-2-3-.8-4.8-.9-4.8-.3 0 .6-1.9.8-4.7.5-2.7-.3-3.9-.3-2.8 0s2.4.9 3 1.4c.5.5 1.6.9 2.5.9 2.8 0 22 7.5 22 8.6 0 1.6 4.6 3.8 6.2 2.9 1-.6 1.1-.5 0 .6-1 1.1-2 1.1-6 0-5.3-1.5-10.3-2.4-8.4-1.5.6.3 1.2 1 1.2 1.5 0 .6-.8.6-1.9-.1-2.4-1.2-3.1-1.3-3.1-.1 0 .5 1 1.1 2.3 1.5 1.3.3 4.1 1.7 6.2 3.2 2.3 1.5 5.3 2.6 7.2 2.6 1.8 0 3.3.4 3.3.8 0 .9 10.2 5.9 13.1 6.5 4.8 1 9.7 4.2 15.2 9.8 3.4 3.5 9.8 8.8 14.2 11.7 4.4 2.9 8.2 5.5 8.4 5.7.3.2.5 1.9.4 3.8-.1 1.9.3 3.5.7 3.5.5 0 1.5.3 2.3.6 1.2.4 1.4 0 1-1.6-.4-1.6-.8-1.8-1.4-.8-.6.9-.9.5-.9-1.3 0-3.7 2.7-4.5 5.6-1.8 1.3 1.2 2.1 2.6 1.7 3.2-.3.5-.9.3-1.4-.4-.6-.9-.9-1-.9-.2 0 .6-.3 1.9-.7 2.8-.5 1.5-.3 1.6 1.6.6 1.8-1 2.6-.8 5.4 1.3 4.6 3.5 10 5.6 14.5 5.6 2.6 0 5 .9 7.8 3 5.3 3.9 10.7 4.7 17.8 2.6 5-1.5 5.9-1.5 8.5-.1 1.7.8 5.2 1.5 7.8 1.4 4.3-.1 4.5-.2 1.9-.9-1.5-.5-4.2-1.9-6-3-3.3-2.3-9.6-10.8-9.6-12.9 0-2.6-11.2-13-17.5-16.1-2.7-1.4-9.5-6.4-9.5-7 0-.4-1.5-2.3-3.2-4.2-1.8-2-4.7-5.2-6.5-7.2-1.7-2-3.6-3.6-4.3-3.6-.6 0-1.6-.5-2.3-1-1.6-1.4-7.6-5.6-10.9-7.7-1.6-1-2.8-2.2-2.8-2.7s-1-1.7-2.2-2.7c-1.1-1.1-1.5-1.9-.9-1.9.7 0-1.2-2.5-4.3-5.5-3-3-5.9-5.5-6.4-5.5-1.3 0-10.7-11.9-13-16.6-1.2-2.3-2.9-4.9-3.8-5.8-.9-1-1.6-2.8-1.6-4.1 0-1.9-.5-2.4-2.1-2.2-2.2.2-9.2-7.7-8.2-9.4.3-.4-.1-1.9-1-3.2-.8-1.3-1.3-3.3-.9-4.3.5-1.6.4-1.7-.6-.4-1 1.3-1.1 1.1-.7-.8.3-1.3.1-2-.5-1.6-.5.3-1.8-.3-2.9-1.5-1.1-1.2-3.8-3.3-6-4.6-4.6-3-5-4.5-1.1-4.5s7.3 1.1 6.6 2.1c-.3.5 0 .9.5.9.6 0 1.1.7 1.1 1.6 0 .8.4 1.3.8 1 .4-.3 2.4 1.5 4.3 3.9 1.8 2.4 3.9 4.4 4.5 4.5 1.4 0 9.6 6.1 14.9 11 2.2 2 7.2 5.8 11 8.5 3.9 2.6 11.1 8.6 16 13.3 5 4.7 11.5 10.8 14.5 13.6 3 2.8 10.2 9.6 16 15 5.8 5.4 13.5 12.4 17.3 15.5 3.7 3.1 9 7.4 11.8 9.7 2.7 2.2 5.7 5.1 6.5 6.3.9 1.2 2.7 2.6 4 3.1 1.3.5 2.4 1.6 2.4 2.5 0 .8.5 1.5 1.1 1.5.6 0 .9.7.6 1.4-.4 1-.1 1.3.9.9 1-.3 1.2 0 .8 1-.3 1 .6 2.4 2.5 3.8 1.7 1.2 3.3 3.1 3.6 4 .5 1.4 1.5 1.8 4.6 1.5 4.1-.4 4.9.4 2.4 2.4-.8.7-1.5 1.8-1.5 2.4 0 .7 6.4 3.1 14.3 5.5 7.8 2.4 17.6 5.4 21.7 6.7 24.3 7.4 23.4 7.2 25 5.9 1.6-1.4 4-.6 6.7 2.1 1.3 1.3 12 2.9 16.6 2.5 1.5-.1 2.7.2 2.7.7 0 1.4 6.7 3.5 8.5 2.8.8-.3 2 .3 2.7 1.2 1.6 2.1 12.2 5.6 12.6 4.2.2-.6 1.2-1 2.3-1 1 0 1.9-.6 1.9-1.4 0-.8 1.2-1.6 2.7-1.8l2.6-.3-2.6-3.1c-3.2-3.8-3.3-4.4-.7-4.4 1 0 3 1.2 4.4 2.7 2.2 2.3 2.8 2.5 4.8 1.5 3.8-1.9 23.8-2.5 27.3-.8 1.7.8 5.5 1.7 8.5 2 6.3.6 16.4 3.9 15.2 5.1-.4.4.4.4 1.7 0 2-.6 2.3-.4 1.8 1-.5 1.3-.2 1.6 1.6 1.3 2.2-.3 2.2-.5 2.2-16.8v-16.5l-2.5-.3c-7.5-1-14.9-5-13.4-7.3.4-.8 0-.9-1.5-.4-1.1.3-2.1.2-2.1-.3 0-.6-2.2-.9-4.9-.9-5.5.2-5.8.1-6.3-2.8-.5-3-6.6-7.5-10-7.5-1.7 0-4.9-1.3-7.3-2.9-2.7-1.8-6.3-3.2-9.6-3.6-3-.4-6.2-1.4-7.2-2.3-1.2-1-3.5-1.6-6-1.6-2.3.1-5.5-.7-7.4-1.7-1.9-1.1-3.9-1.9-4.6-1.9-.7 0-1.8-.5-2.5-1.2-1.3-1.3-2.7-1.7-8.7-2.2-2.2-.2-4.2-.5-4.5-.6-2-.8-12.6-.3-17.5.7-3.3.7-9.9 1.3-14.6 1.3-7.9 0-8.8.2-11.6 2.8-1.6 1.5-5.5 6.6-8.6 11.4-4.6 7-6.3 8.9-9.2 9.8-3 1-4 .9-6.3-.6-4.9-3.2-14-11.6-15.1-14-.7-1.5-1.6-2.2-2.6-1.8-.8.3-1.5.1-1.5-.5s-.7-.8-1.7-.4c-1.1.4-1.4.3-.9-.5.4-.7.2-1.2-.3-1.2-2 0-5.1-3.5-5.1-5.7 0-2.4-2.3-4.2-4.9-3.8-.9.1-1 0-.3-.2 2.3-.8-2.8-5.3-5.9-5.3-1.5 0-4-1-5.6-2.3-1.5-1.3-4.4-3.3-6.3-4.4-3.5-2.2-10.8-9.3-8-7.8.8.4.2-.4-1.5-1.8-3.9-3.3-2.7-4.4 1.9-1.7 3.6 2 3.8 2 6.7.3 1.6-1 2.9-2.1 2.9-2.6 0-.4-.4-.6-1-.2-1.5.9-6-.6-6-2 0-.7-.7-1.6-1.6-1.9-.8-.3-1.3-1-1-1.5.3-.5-.7-1.1-2.3-1.3-3.4-.5-5.3 0-4.5 1.3.3.5 0 .9-.5.9-.6 0-1.1.4-1.1 1 0 .5.7.7 1.5.4 1-.4 1.5 0 1.5 1.2 0 1.6-.2 1.7-1 .4-.5-.8-1-1.1-1-.7 0 .4-.9.3-2-.3s-2-1.8-2-2.8c0-1.5.2-1.5 1-.2.8 1.2 1 .9 1-1.3 0-1.5-.5-2.7-1.3-2.7-.7 0-1.9-.9-2.7-2-.8-1.1-2.1-2-3-2-1.2 0-1.3-.2-.1-.9 1-.7.5-1.1-1.8-1.6-1.7-.3-3.1-1.1-3.1-1.7 0-.5-1.5-2.4-3.2-4-1.8-1.7-3.3-3.7-3.3-4.6 0-.8-.6-1.7-1.4-2-.8-.3-1.1 0-.7.7.4.6.2 1.1-.3 1.1-1.4 0-1.4-.6-.1-3 .8-1.5.6-2.1-.7-2.9-1.3-.8-1.4-1-.3-1.1 1.1 0 1.1-.3.2-1.2-.7-.7-1.2-2.1-1.2-3.1 0-1.5-.5-1.8-2.5-1.5-2.2.5-2.3.3-1.3-1 1.1-1.3 1-1.4-.8-.8-2.1.6-6.4-2.4-6.4-4.6 0-.6-.7-1.6-1.4-2.2-.8-.6-1.7-3-1.9-5.3-.2-2.3-1-5-1.8-6-2.6-3.3-8.4-8.4-10.6-9.3-5.3-2.2-.4-5.5 6.8-4.7 2.7.3 5.8 1.3 7.1 2.1 1.3.8 4.2 1.7 6.5 2 4.9.6 7.4 1.7 12.8 6.1 2.2 1.7 6.5 4.5 9.5 6.1 3 1.7 11.5 7.6 18.8 13.2 7.3 5.6 13.5 10.2 13.9 10.2 1.5 0 16.3 12.9 20.3 17.8 5 6 8.5 8.2 12.8 8.2 1.6 0 5.1.7 7.8 1.5s5.1 1.5 5.3 1.5c.3 0-1-1.2-2.9-2.7-5-4.1-8-7.3-8-8.3 0-1.3 3.7-5 5-5 1.9 0 1-2.5-1.2-3.5-3-1.3-3-4.1-.2-3.8 1.2.1 3-.7 3.9-1.7 2.1-2.3 4.7-2.5 7.5-.8 1.8 1.1 2.3.9 4.3-1.5l2.3-2.9 7.7 2.6c9.4 3.1 9.3 3.1 10 .4.8-2.9-3.1-6.5-9.2-8.5-2.5-.9-9.5-1.9-15.6-2.4-13.2-.9-20.3-2.2-24.2-4.4-6.9-3.9-8.8-5.2-10.6-7.8-1.7-2.2-1.9-3.1-.9-5.1l1.1-2.4 3.8 1.9c4.8 2.5 8.4 2.4 11.7-.2 3.9-3.1 4.8-6.1 3.5-11.9-.9-4.2-1.8-5.5-5.8-8.4-2.6-1.9-5.9-3.8-7.4-4.1-2.6-.7-2.7-.6-1.7 2 .5 1.4.9 5 .9 7.8-.1 2.9-.3 4.1-.5 2.7-.3-1.4-.7-4.5-1.1-7l-.7-4.5-.7 5c-.3 2.7-1.2 6.9-1.8 9.3-1.1 3.8-1.3 4.1-2.7 2.7-.9-.8-2.2-1.5-2.9-1.5-2.3 0-3.5-3.4-3.5-9.5 0-6.7 2.4-9.7 9.1-11.5 3.7-1 5.9-.9 14.8.9 5.7 1.2 13.9 3.4 18.3 4.8 6.9 2.2 8.5 2.4 11.8 1.4 8.9-2.6 20.6-.2 27 5.5 3.8 3.5 5.8 7.5 8 16.2.6 2.4 1.8 4.6 2.8 4.9.9.3 6 2.6 11.2 5.1 5.2 2.4 11.4 5.3 13.7 6.2 5.8 2.6 34.5 10 38.5 10h3.3l.2-15c.1-13 .6-20.3 2.9-40.5 1.6-15 4-47.2 5.4-73.5 1.2-22.8 2.6-38.6 4.4-48.8l1.2-7.2-149 .2-149 .3-.7 3.5c-.4 1.8-1.4 3.9-2.2 4.5-.7.5-1.9 2.3-2.5 4l-1 3-.3-4c-.3-5.1-.2-6.5.6-9.3.7-2.2.7-2.2-9.8-2.2h-10.6l-.3 2.7c-.4 3.5-3.1 3.4-8.8-.2C273.4.2 272 0 265.2.2l-7.6.3 3.4 3.3c1.9 1.8 5.1 4.2 7 5.3 3.7 2.1 8.5 7.8 8.5 10 0 .8-1.1 1.4-2.5 1.4-3 0-3.3 2.2-1.2 7.7 1.5 4 1.3 7.9-.4 8.5-.6.2-7.6-6.5-15.5-14.9S241.1 5.1 239.3 3.3C236.2 0 231-1.3 231 1.2c0 .7 3.6 5.1 8 9.8 4.4 4.7 9.6 10.8 11.5 13.7 2 2.9 4.3 5.9 5.1 6.8.9.9 1.4 1.8 1.2 2.1-.4.4-11-7.5-12.8-9.6-.3-.3-4.1-3.6-8.5-7.4-4.4-3.8-10.3-9.1-13.2-11.7-4-3.9-5.8-4.9-8.5-4.9h-3.3l6.1 5.8c3.4 3.1 9.9 8.8 14.5 12.7 9.3 7.9 29.9 28.2 29.9 29.6 0 .5-.9.9-1.9.9-2.5 0-3.1 2.8-1.2 6.2.9 1.5 1.3 3 .9 3.3-1.5 1.5-5.6-1.2-13.3-9.1-4.6-4.6-8.8-8.4-9.4-8.4-.5 0-2-1-3.2-2.3-1.7-1.7-1.5-.8 1.1 3.8 6.2 11.5 7.9 15.5 6.3 15.5-.4-.1-2.6-2.4-4.8-5.2-5.6-7.1-19.8-21.3-27.4-27.3-8.6-6.8-13-11.2-18.8-18.6-4-5.2-5.6-6.5-8.1-6.7-1.8-.2-3.2.1-3.2.6 0 2.4 22.1 25 31.6 32.2 1.8 1.4 5 4.5 7.1 7 2.1 2.4 7.1 8 11.2 12.2 4.1 4.3 8.5 9.5 9.9 11.6 3.5 5.3 8.2 10.1 11.6 11.9 2 1 2.5 1.8 1.8 2.5-1.7 1.7-5.4.1-10.7-4.7-4.4-4-5.4-4.5-8.4-4.1-1.8.3-3.6.8-3.9 1.1-.7.6 2.4 6.7 6.1 11.9 3.3 4.8 3.4 6.2.3 7-2.9.7-5.9-.5-13.6-5.3-3-1.9-5.5-3.3-5.5-3 0 1.6-8.2-6.5-11.6-11.5-9.6-14.2-18.6-25.7-27-34.6-3.9-4.1-8.9-10.1-11-13.2-3.6-5.2-6.4-7.8-8.5-7.8-.5 0-.3.5.4 1.2s1.2 2.1 1.2 3.3c0 1.1 1.1 3.7 2.5 5.7s2.5 4 2.5 4.4c0 .3 3.1 4.9 6.8 10.3 7.2 10.2 8.6 12.7 7.3 13.5-1 .6-3.6-1.4-10.6-8.1-5.3-5.1-8.5-6.1-8.5-2.7 0 3.5-7.2-.7-15.7-9.1-.9-.9-2.7-2.1-4-2.6-2.7-1-3.1-3.7-.5-4.5 5-1.6 6.1-2.6 4.9-4.4-1.4-2.4.4-4.6 4.6-5.6 3.4-.7 6.3-2.2 8.5-4.2 1.2-1.1 1.8-1 3.6.7 1.2 1.2 2.5 2.1 2.7 2.1 1.2 0 .3-8.4-.8-8.8-.7-.2-1.3-1.5-1.3-2.8V0h-51.8l2.1 4.2zm15 23c1.8 1.4 4.7 8.8 4.7 12 0 1.1-1.8 3.9-4.1 6.1l-4 4-1.5-2.7c-1.7-3.4-1.8-5-.2-9.2 1.4-3.9-.1-6.4-3.8-6.4-1.4 0-2.4-.6-2.4-1.5 0-.8.6-1.2 1.3-.9.7.2 2.1-.2 3.2-1 2.5-1.9 4.6-2 6.8-.4zm12 21.9c.5 4.3.3 7-.8 9.6-1.8 4.3-1.8 4.3-.2 4.3 2.8 0 15.7 16.9 13 17-.4 0 0 .7 1 1.4 1.2.9 2.1 3.6 2.7 7.7.8 5.7.4 9.3-.7 6.1-.8-2.2-2.5-1.3-1.8 1 .6 1.7.4 2-.9 1.5-1-.4-1.6-.1-1.6.8 0 .7-1.8 5-4.1 9.5-2.9 5.7-5 8.5-7 9.6-1.7.8-4 2.4-5.2 3.4-1.2 1-3.3 2.8-4.6 3.9-1.3 1.2-3 2.1-3.7 2.1-.7 0-1.9.3-2.8.6-1.2.5-1.6 0-1.6-1.9 0-1.4.7-2.7 1.5-3.1.8-.3 1.4-.9 1.3-1.3-.1-.4.3-1.8 1-3 1.7-3 .1-3.6-4.3-1.7-3.9 1.6-5.2 1-5.6-2.4-.1-.6-.2-1.7-.3-2.4 0-.6-.7-1.3-1.5-1.6-1-.3-1.2 0-.8 1.1.4 1.2.2 1.4-1 1-1.2-.5-1.4-1.7-.9-6.7.6-6.4 1.3-10.8 1.8-11 1.7-.9 10.1-6.7 13.1-8.9 3.9-3 7.7-9.2 7.7-12.5 0-1.1 1.1-3.5 2.4-5.5 2.1-3 2.2-3.8 1-4.7-.7-.7-2-1-2.8-.7-1.7.7-2.8-2.7-1.4-4.1.6-.6 0-1.2-1.7-1.6l-2.7-.7 3.6-3.1c2-1.7 3.6-4 3.6-5.2.1-8.6 3.4-7.5 4.3 1.5zm28.8-1.7c.8-.4.9-.3.5.4s-.3 1.2.1 1.2c.5 0 2 1.1 3.4 2.4 1.4 1.3 3.5 2.6 4.6 3 2.9.9 11.7 9.9 16.9 17.2C195 75 197 78 197 78.4c0 2.2-10.2-1.2-13-4.3-.3-.4-1.2-.7-2-.9-4.2-1-18-14.1-18-17.2 0-1.2-.5-3-1.1-4.1-1.4-2.7-.2-6.4 1.6-4.9.8.7 2 .8 2.6.4zM72.8 76.3c2.8 1.8.3 9.4-3.5 10.3-1.3.4-2.3 1.1-2.3 1.7 0 .5-.9.2-2-.8-2.1-1.9-5.5-9.9-4.7-11.2.7-1 10.8-1 12.5 0zm213.1 4.6c.9.6 1.1 1.8.6 4-.8 3.6-1.4 4.2-4.2 3.5-1.7-.5-2.1-1.2-1.7-3.7.5-4 2.6-5.5 5.3-3.8zm113.5 21c3.8 1.3 12.6 8.5 12.6 10.4 0 .6.8 2 1.8 3.1 1.6 2 1.6 2-.2.6-1.7-1.3-1.8-1.3-1.4.5.2 1.3 1.2 2 2.6 2 2.4.1 5.6 3.7 4.4 5-.4.5-.2.5.5.2.6-.4 2 .6 3.1 2.5 1.2 1.8 2.9 4.2 3.9 5.3 4.5 5 8.8 11 9 12.9.2 1.6.1 1.8-.6.6-.5-.8-.7-1.8-.5-2.2.3-.4-.3-.8-1.4-.8-1 0-2.4-1-3.1-2.3-.7-1.3-2.2-2.3-3.7-2.3-2.3-.2-2.4-.1-.7 1.2s1.7 1.4.1.8c-1-.3-1.8-.3-1.8 0 0 .4 1.4 1.2 3.1 1.8 3.3 1.1 3.3 1.6 0 2.3-1.4.3-1.9 0-1.5-.7.5-.7.2-.9-.9-.5s-2-.4-3.2-2.9c-1.4-3.1-2.5-3.9-4.7-3.5-.4 0-.5-.6-.2-1.4.4-.8 1.1-1.2 1.7-.8.6.4.7.1.3-.6-.5-.7-1.4-1-2-.8-.7.3-1.7-.8-2.3-2.4-.8-2.2-.8-2.9 0-3 .7 0 .2-.4-1-.9-1.3-.5-2.3-1.4-2.3-2 0-.6.5-.8 1-.5.6.3 1 .2 1-.4 0-.5-.5-1.3-1-1.6-.6-.4-.8-1.2-.4-1.8.3-.7-.3-.2-1.4 1-1.2 1.4-3.5 2.4-5.8 2.6-2.2.3-3.1.2-2.1 0 5-1.3-2-4.5-13.8-6.3-5.5-.8-14.8-1-29.5-.6-19.6.5-88 .9-102.5.5-10.6-.3-1.4-1.6 13-1.9l13-.3-16.1-.7c-11.8-.5-16.9-1.1-19.4-2.3-1.8-.9-3.6-1.4-4.1-1.1-1.6 1-.9-1.3 1.1-3.9 3.6-4.6 6.9-5 49.5-5.7 59-1 101.2-.6 105.9.9zm-122.3 18.8c1.3 1.5 1 1.5-2.6.9-5.4-1-6.9-2.6-2.3-2.6 2.1 0 4.1.7 4.9 1.7zm-28.7 4.2c-.2.3-1.2-.3-2.2-1.3-1.6-1.7-1.6-1.8.5-.5 1.2.7 2 1.5 1.7 1.8zm8.7 7.8c1.3 1.6 1.2 1.7-.3.4-1-.7-1.8-1.5-1.8-1.7 0-.8.8-.3 2.1 1.3zm10.4 8.3c1 1.1 1.6 2 1.3 2-.3 0-1.3-.9-2.3-2-1-1.1-1.6-2-1.3-2 .3 0 1.3.9 2.3 2zm15.2 13.7c.5 1.4-5 3.3-6.6 2.4-.9-.6-.9-1 .1-1.8 2.9-2.3 5.9-2.6 6.5-.6zM8.8 176.9c2 .6 3.2.6 3.2 0 0-.5 1.1-.9 2.5-.9s2.5.4 2.5 1c0 .9-6.2 3-9.2 3-.9 0-1.8.5-2 1.2-.3.7-1 .8-1.7.4-1.1-.7-1.1-1 0-1.7 1-.6.9-1-.6-1.5-1.8-.7-1.8-.8.1-1.5 1-.4 1.9-.8 1.9-.8 0-.1 1.5.3 3.3.8zm18 7.5c2.3.4 3.1.2 2.6-.6s0-.9 1.7-.5c1.3.4 3 .7 3.7.7.6 0 1.2.5 1.2 1.1 0 .5-.4.7-1 .4-.5-.3-1 .3-1 1.4 0 1.7-.6 2.1-3.2 2.1-2.9 0-3 .1-1.5 1.8 2.1 2.3 2.1 3.6.2 5.2-1.3 1-2.7.8-8-1.6-3.5-1.6-6.7-3.5-6.9-4.2-.6-1.4 4-3.6 5.5-2.6.9.5 1.3-.9 1-3.3-.1-.7.4-1.1 1.1-.9.7.2 2.8.7 4.6 1zM79 194c0 .5-.9 1-1.9 1-1.1 0-2.3-.5-2.6-1-.4-.6.5-1 1.9-1s2.6.4 2.6 1zm-11.6 6.9c2.4 2.7.5 6.5-2.7 5.5-6.4-1.9-6.5-6.6-.1-7.3.6 0 1.9.8 2.8 1.8zm42.8 9.3c-1.6 1.6-1.9-1.4-.8-6.2l1.1-4.5.3 4.9c.2 2.7-.1 5.3-.6 5.8zm201.1 24.5c-.7.2-1.9.2-2.5 0-.7-.3-.2-.5 1.2-.5s1.9.2 1.3.5zm5.7.8c0-1.7.3-1.6 2.5 1 1.3 1.6 2.4 3.3 2.5 3.7 0 1-2.6.3-4.4-1.1-.9-.7-1.6-1-1.6-.5s-.5.1-1.1-.9c-.6-1-1.5-1.4-2.2-1-.7.4-.6 0 .2-1 1.3-1.6 1.4-1.6 2.7 0 1.3 1.7 1.3 1.7 1.4-.2zm66.3 25.8c-.3 5-2.9 9.7-5.3 9.7-2.5 0-2.5-.6-.1-6.1 1-2.4 2.1-5.2 2.5-6.2 1.1-3.2 3.1-1.3 2.9 2.6zm84.3 12.2c.4.8 1.6 1.5 2.8 1.6 1.1 0 1.5.3.8.6-1.8.7-6.4-.6-5.7-1.6.3-.5-.1-1.2-.7-1.4-.8-.3-.6-.6.5-.6 1-.1 2 .6 2.3 1.4zM196 289.1c0 .5-.7.9-1.5.9-1.5 0-2-1.2-.9-2.3.8-.8 2.4.1 2.4 1.4zm27.4 8.5c2.5 1 1.9 3.4-.9 3.4-1.8 0-2.5-.5-2.5-2 0-2.1.8-2.4 3.4-1.4zm-16.6 11.5c-.2.6-.8 1-1.3 1s-1.1-.4-1.3-1c-.2-.6.4-1.1 1.3-1.1s1.5.5 1.3 1.1zm46.2.4c0 .8-.9 1.5-2 1.5s-2-.7-2-1.5.9-1.5 2-1.5 2 .7 2 1.5zm-39 5c0 .8-.9 1.5-2 1.5s-2-.7-2-1.5.9-1.5 2-1.5 2 .7 2 1.5zm22 4.9c0 2-1.9 3.1-3.2 1.8-.6-.6-.7-1.5-.4-2.1 1-1.6 3.6-1.3 3.6.3zm46.5.5c.7 1.2-2.9 3.3-3.9 2.4-.3-.3-.6-1.2-.6-2 0-1.5 3.6-1.8 4.5-.4zm-38.5 5.6c0 1.7-3.1 2.8-4.3 1.6-.5-.5-.7-1.6-.4-2.5.7-1.7 4.7-1 4.7.9zm22 5.5c0 1.3-.7 2-1.9 2-2.2 0-3.5-1.5-2.6-3 1.2-1.9 4.5-1.1 4.5 1zm53.3.6c-.2.7-1.9 1.2-3.6 1.2-1.8 0-4.1.1-5.2.3-1.2.3-2.1-.2-2.3-1.2-.2-1.3.8-1.6 5.7-1.6 4.3 0 5.8.4 5.4 1.3zm-93.3 4.3c0 1.1.5 2.3 1 2.6 1.8 1.1 1 2.3-2.1 3-3.6.8-3.5.9-4.3-3.2-.7-3.3-.8-3.2 4.7-4.2.4 0 .7.8.7 1.8zm48 .1c1.3.9 1.2 1.2-.4 2.5-2.8 2.2-4.3 1.8-4.8-1-.4-2-.1-2.5 1.6-2.5 1.1 0 2.8.5 3.6 1zm23 4.8c0 .5-.6 1.6-1.3 2.6-1.1 1.5-1.7 1.7-3.5.7-3.7-2-2.5-3.3 3.6-4 .6 0 1.2.3 1.2.7zm46.5 1.6c1.8 1.3 1.8 1.4-.3 2.5-3.2 1.7-4.2 1.3-4.2-1.4 0-2.8 1.7-3.2 4.5-1.1zm15.5 1.8c0 2.6-1.7 4-3.9 3.3-2.7-.8-2.7-1.9.2-3.3 3-1.4 3.7-1.4 3.7 0zM256.7 347c-.3 1 .2 2.5 1 3.1 1.2 1.1 1.1 1.4-.9 2.5-3.1 1.7-4.8 1.7-4.8 0 0-.8-.7-2.2-1.6-3.1-1.9-1.8-1.9-1.7 2.1-3.2 4.3-1.6 4.8-1.5 4.2.7zm48.3 1c1.1.7.9 1.1-1.3 2.1-3 1.4-3.2 1.3-4.2-1.9-.6-2.2-.5-2.3 1.7-1.7 1.2.4 3 1.1 3.8 1.5zm24 3.7c-.1 1.9-3 4.4-4.6 4.1-2.9-.5-2.7-2.5.3-3.6 3.5-1.3 4.3-1.4 4.3-.5zm46.5 2.7c1.7 1.3 1.3 1.7-5.9 5.2-4.4 2.2-8.6 5-9.4 6.4-.9 1.4-1.7 2.6-1.8 2.8-.1.2-1.4-.2-2.7-1-2.5-1.3-2.4-1.4 6.4-5.7 8.2-4 9-4.6 8.5-6.8-.5-1.8-.2-2.3 1.2-2.3 1 0 2.7.6 3.7 1.4zm15.5 2.5c0 2.7-1.5 3.4-4.1 2l-2.2-1.2 2.4-1.3c3.3-1.8 3.9-1.7 3.9.5zm-103 2.2c-.9 1.7-.8 2.3.7 3.4 1.7 1.3 1.6 1.5-1.7 2.9-3.5 1.4-3.5 1.4-4.3-1.4-.4-1.6-1.2-3.2-1.9-3.6-.6-.4.3-1.2 2.3-1.9 5.3-2 6.2-1.8 4.9.6zm46.9 0c3.8 1.3 3.9 2.2.5 3.8-3.1 1.4-3 1.4-3.9-2.2-.8-3.1-.9-3.1 3.4-1.6zm-95.8 2.7c-1.3 2.5-.4 3.5 5.2 5.6 2.6 1 4.7 1.9 4.7 2.2 0 .2-1.4 1.1-3 1.9-3 1.6-3.1 1.6-4.1-1.4-.6-1.7-2-3.3-3.2-3.7-1.2-.3-3-1.3-4-2.2-1.7-1.5-1.7-1.6.5-2.9 3.4-1.9 5.1-1.7 3.9.5zm169.3 4.7l3.6 1.5-9.2 4.8c-7.1 3.6-9.4 5.2-9.6 6.9-.4 2.7-.3 2.7-5 .7l-3.7-1.7 3-.7c1.7-.3 6.1-2.4 9.9-4.5 6-3.3 6.7-4 6.2-6.1-.7-2.8-.1-2.9 4.8-.9zm17.8.5c-1.2 1.2-2.2 2.8-2.2 3.7 0 1.2-.7 1.4-3.2.9-4.2-.8-6.1-2.6-2.7-2.6 1.3 0 3.8-.9 5.4-1.9 4-2.6 5.4-2.6 2.7-.1zm-106.3 4.2c-1 1.9-.9 2.4 1 3.7 2.2 1.4 1.9 1.6-7 6.1-5.1 2.6-9.9 5.6-10.7 6.9-1.4 2.1-1.3 2.2 5.7 5.3l7.1 3.2-4 1.3c-4.3 1.5-15.6 7.8-17.7 9.9-1.7 1.7-1.6 2.4.5 4.1 1 .8-.2.6-3.3-.6-4.5-1.7-5.5-1.7-8.3-.6-2.9 1.3-3.3 1.2-4.2-.5-.9-1.8-1.4-5-.7-5 .2 0 2.4.7 4.9 1.6l4.6 1.5 9.1-4.6c5.1-2.5 9.4-5.2 9.7-6 1-2.6-1.4-4.8-8.2-7.6-6.7-2.7-6.8-2.8-3.1-2.8 3.5-.1 18.8-6.8 20.1-8.9.2-.4-.1-1.9-.8-3.3-1.2-2.2-1-2.5 2.3-4.1 2-.9 3.7-1.7 3.9-1.7.1-.1-.3.9-.9 2.1zm49.1 1.1l3.2 1.4-7.9 3.7c-7.5 3.6-12.3 7-12.3 8.8 0 .5 1.1 1.4 2.5 2 2.4 1.1 2.2 1.3-6.7 6-11.1 5.9-12.1 6.6-11.5 9 .4 1.5.1 1.8-1.6 1.2-1.2-.3-3.3-1.3-4.7-2-2.4-1.2-2.4-1.3-.4-1.4 3.2 0 19.4-8.9 19.4-10.6 0-.8-.8-2.2-1.7-3.1-1.7-1.7-1.3-2 7.8-6.4 9-4.4 9.6-4.9 9.2-7.3-.6-3 .2-3.2 4.7-1.3zm-98 1.8c-.7 1.1-.9 2.7-.6 3.5.5 1.2.1 1.2-2.9 0-1.9-.8-4.3-2-5.2-2.5-1.5-.9-1.3-1.1 1.2-1.1 1.7-.1 3.9-.5 5-1 3.2-1.4 3.6-1.1 2.5 1.1zm7.1 6.8l4.2 1.9-3.8 1.6c-2 .9-3.9 1.6-4 1.6-.2 0-3 1.5-6.4 3.4-3.3 1.9-6.3 3.1-6.5 2.7-.3-.4 2.4-2.2 6-3.9 6.3-3.1 6.5-3.4 5.9-6.2-.8-3.5-.9-3.5 4.6-1.1z"/><path d="M301.8 113.7c1.2.2 3 .2 4 0 .9-.3-.1-.5-2.3-.4-2.2 0-3 .2-1.7.4zm11.5 0c.9.2 2.3.2 3 0 .6-.3-.1-.5-1.8-.5-1.6 0-2.2.2-1.2.5zm9 0c1.5.2 3.9.2 5.5 0 1.5-.2.2-.4-2.8-.4s-4.3.2-2.7.4zm91.6 7.7c.7.8.9 2.1.5 2.7-.4.8-.3.9.5.5.6-.4 1.9-.2 2.8.6 1.3 1 1.2.6-.2-1.4-1.1-1.5-2.6-3-3.4-3.3-1.1-.4-1.1-.3-.2.9zm7.2 10.2c1 1.3 1 1.7-.2 2.6-1.1.8-1.1.9.4.4.9-.3 1.7-.1 1.7.4s.6.7 1.4.4c1.2-.4 1-1-.7-3-2.2-2.6-4.8-3.4-2.6-.8zM201.7 8.7c4.7 4.9 10.1 10.7 12 13 3.8 4.6 14 12.9 14.9 12 .9-.8-.4-4.1-2.4-6.3-.9-1-4.6-5.3-8.2-9.4-13.8-16.1-16-18-20.6-18h-4.2l8.5 8.7zm435.6 13c.9 29.7.9 29.8 1.7 21.3.4-4.1.8-15.5.9-25.3.1-15.8-.1-17.7-1.6-17.7s-1.6 1.9-1 21.7zm.8 31.9c0 1.1.3 1.4.6.6.3-.7.2-1.6-.1-1.9-.3-.4-.6.2-.5 1.3zm-2.6 83.6c-.4 3.4-.9 10.1-1.1 14.8-.2 4.7-.6 10.3-.8 12.5-1.9 17.6-2.7 23.6-3.5 25.8-1.1 2.9-.8 3.4 3.8 5.3 6.4 2.7 6.1 4.3 6.1-28.9 0-19.8-.4-29.7-1-28.7-.7 1.2-1 .8-1-1.5-.1-6.2-1.7-5.7-2.5.7zm-503.7 55.2c-2.9.5-4.8 1.5-4.8 2.3 0 .7.4 1.3.9 1.3s3.1 2 5.9 4.5c4.3 3.8 5.8 4.6 10.1 4.9 5.8.5 6.8-.3 4.6-3.8-1.3-1.9-1.3-2.5-.3-2.9 2.2-.8-3.6-5.9-7.2-6.3-1.7-.2-3.5-.5-3.8-.7-.4-.2-2.8.1-5.4.7zm4.9 6.8c-.3.8-.6.5-.6-.6-.1-1.1.2-1.7.5-1.3.3.3.4 1.2.1 1.9zm138.1-7c.5.5 1.6.8 2.3.6.8-.3.3-.7-1-1.1-1.7-.4-2.1-.3-1.3.5zM272 195c.8.5 2.2 1 3 1 1.3 0 1.3-.1 0-1-.8-.5-2.2-1-3-1-1.3 0-1.3.1 0 1zm19.7 3.1c-.3 1.2-.3 1.8 0 1.5.4-.3 1.7.1 3 .9 3.2 2.1 3.1-.4-.1-2.7-2.3-1.7-2.4-1.6-2.9.3zm-3.2-.1c-.3.5-.1 1 .4 1 .6 0 1.1-.5 1.1-1 0-.6-.2-1-.4-1-.3 0-.8.4-1.1 1zm-136.9 11.8c-.4.3-3.1.7-6.2.9-8.9.5-11.6 3-7.4 6.8 3.8 3.4 26.4 3.9 30.4.6 2.7-2.2 1.9-5.1-1.6-6.5-3.7-1.5-14.3-2.8-15.2-1.8zm-4.7 4.8c.4.3-2.5 3.4-3.2 3.4-.3 0-.7-1.1-.9-2.5-.5-2.2-.3-2.5 1.6-1.9 1.1.4 2.3.8 2.5 1zM0 318.5V425h143.7c79 0 143.4-.2 143.2-.4-.2-.3-6.2-6.5-13.3-14-7.1-7.4-13.3-13.3-13.9-12.9-.6.3-.7.2-.4-.4.3-.5-5.1-6.7-12.1-13.7-7-7-15.3-15.6-18.6-19.1-3.2-3.6-6.3-6.2-6.9-5.8-.5.3-.7.1-.4-.4.8-1.3-2.7-4.6-3.7-3.6-.4.5-.6.3-.4-.3.3-1.3-5.6-7.7-32.5-35.4-47.6-49-47.6-48.9-60.6-57.4-17.3-11.3-20-12.4-81.6-34.6-11-4-24.6-8.9-30.3-11.1C6.5 213.8 1.5 212 1 212c-.6 0-1 39.7-1 106.5zm281.5-93.1c1.1.8 2.3 1.2 2.7 1 .5-.3.8-.1.8.5 0 .5-.6 1.2-1.2 1.5-.7.3-.1.4 1.5.1 1.6-.3 2.7-.1 2.7.5s.5.8 1 .5c2-1.2.9-2.3-3.7-3.9-5.7-2-6.2-2-3.8-.2zm238 11.6c-3.7.9-11.5 4.9-11.5 5.9 0 1.6 1.4 2 2.8.9.8-.7 2.1-1.3 3.1-1.4 1.5-.3 3.8-.9 12.4-3.4 2-.7 3.7-1.6 3.7-2.1 0-1.1-6.1-1-10.5.1zm-13.8 6.7c-.4.3-.7 1.1-.7 1.7 0 .6.5.5 1.2-.2.6-.6.9-1.4.7-1.7-.3-.3-.9-.2-1.2.2zm90.1 74c.7.3 1.6.2 1.9-.1.4-.3-.2-.6-1.3-.5-1.1 0-1.4.3-.6.6zm10.2 5.9c0 2 .4 2.5 1.6 2 .8-.3 1.2-.2.9.4-.3.6.4 1 1.6 1 1.3 0 3.2.8 4.3 1.9 3 2.7 8.1 4.1 14.7 4.1 6.1 0 9.2.7 8.4 2-.3.4.2 1 1 1.4 1.1.4 1.5-.1 1.5-1.9 0-1.9-.9-2.6-5.2-4.1-2.9-.9-5.9-2.5-6.6-3.6-.7-1-2.1-1.8-3.1-1.8s-4.7-.9-8.1-2c-8.7-2.8-11-2.7-11 .6zm19.7 8c-.3.3-1.2.4-1.9.1-.8-.3-.5-.6.6-.6 1.1-.1 1.7.2 1.3.5zm-.7-8.2c0 .2.7.6 1.5 1 .8.3 1.5.1 1.5-.4 0-.6-.7-1-1.5-1s-1.5.2-1.5.4zm10.8.3c-3.1.5-3.7 1.8-1.2 2.7 3.2 1.2 5.4.6 5.4-1.4 0-1.1-.3-1.9-.7-1.9-.5.1-2 .4-3.5.6zm-65.2 5.2c-1.8.7-1.6.9 1.2 1.9 4 1.4 6.8.6 5.1-1.4-1.2-1.5-3.3-1.7-6.3-.5zm10.4 2.9c0 1.5 2.4 3.2 4.5 3.1 1.9 0 1.9-.1-.2-1.1-1.3-.6-2.3-1.5-2.3-2 0-.4-.4-.8-1-.8-.5 0-1 .4-1 .8zm-15 3.7c-.7.8-.9 1.5-.4 1.5s2 .3 3.3.7c2.1.5 2.2.4 1.2-1.6-1.4-2.5-2.4-2.6-4.1-.6zm22-.8c0 .5 5.7 3.3 12.7 6.3 11.2 4.9 12.4 5.6 9.7 6.1l-2.9.6 3 .8c3.8.9 10.6 5.5 10 6.6-.3.4-1.1.6-1.8.4-5-1.5-6.5-1.4-7 .4-.4 1.6.3 2 5.6 2.6 3.5.4 7.3 1.5 8.9 2.6 1.5 1.1 3.2 1.7 3.8 1.4.8-.5 4.8.9 9.3 3.2.4.2.7-.5.7-1.6 0-1.6-.6-2.1-2.4-2.1-1.3 0-2.6-.5-2.8-1.2-.3-.7-2.5-1.3-5.2-1.4-4.5-.2-6.5-1.4-6.6-3.8 0-.4 1.6-.5 3.6-.1 2.4.4 3.4.3 2.9-.4-1-1.6 1.1-1.3 2.9.4.8.8 2.8 1.5 4.5 1.5 2.9 0 3.1-.2 3.1-3.9 0-3.3-.4-4-2.5-4.5-1.4-.4-2.5-1.2-2.5-2 0-1.5-9.1-3-10-1.6-.3.4-1.6.3-3-.2-1.8-.7-2.1-1.1-1.1-1.7 1.8-1.2-2.2-2.1-6.3-1.4-3.2.5-9.6-1.8-9.6-3.5 0-.5-2.6-1.3-5.7-1.9-3.2-.6-7-1.5-8.5-1.8-1.6-.4-2.8-.3-2.8.2zm29.4 13.2c1.5.6 1.6.9.5 1.3-.8.3-2-.1-2.7-.8-1.4-1.5-.7-1.7 2.2-.5zM575 337.6c0 .9 1.1 1.4 2.8 1.4 3.5 0 4.5.9 3.1 2.6-.6.7-.8 1.8-.4 2.4.9 1.4 2.8 1.3 2.2-.3-.6-1.9 2.5-3.7 4.6-2.5 1 .5 2.1.7 2.4.5.7-.7-5.4-3.3-10.4-4.5-3.5-.8-4.3-.7-4.3.4zm57.5-.6c1.9.8 1.9.8-.4 1.7-1.8.7-2 1.1-1 1.5 1.9.7 5.3-1.7 4.4-3.1-.3-.6-1.6-1.1-2.8-1-2.1 0-2.1.1-.2.9zm-73.5 4.5c0 .9-.9 1.5-2.1 1.5-1.1 0-7.5 3.6-14.2 8-6.7 4.4-12.6 8-13.1 7.9-.5 0-1.2.3-1.5.8-.3.5-3.3 2.4-6.5 4.3-3.3 1.8-7.6 4.9-9.6 6.9-4.5 4.4-6.7 6.1-7.6 6.1-.4 0-3.1 2-6 4.5-2.8 2.5-5.5 4.5-5.8 4.5-1 0-10.1 6.5-10.9 7.7-.4.7-1.4 1.3-2.1 1.3-1.6 0-6.6 3.9-5.1 4 .6 0 4.2.9 8 1.9 3.9 1.1 6.1 1.4 5.1.8-1-.7-3.1-2.2-4.5-3.4-2.2-1.9-2.4-2.2-.9-2.8.9-.4 2.5-.2 3.6.4 1 .5 2.9.7 4.1.4 1.7-.4 1.9-.8 1-1.9-.9-1.1-.7-1.4 1-1.4 1.2 0 3.1.5 4.3 1.1 1.1.6 2.2.8 2.6.5.8-.9-3-3.5-5-3.6-1 0-1.8-.4-1.8-.9s2-.5 4.7 0c5.9 1.1 6.7.4 1.8-1.7-2.6-1.1-3.4-1.9-2.7-2.6 1-1 2.8-.6 14.9 3.3 2.2.7 3.8.7 5 0 1-.6 1.2-1.1.6-1.1-.7 0-1.3-.7-1.3-1.5s-.6-1.2-1.4-.9c-.8.3-1.7.1-2.1-.5-1.4-2.3 2.6-2.1 7.5.3 6.3 3.2 8.4 3.3 7.7.6-.6-2.4.1-2.5 3.3-.3 1.7 1.2 4.8 1.7 11.4 1.8 7.4.2 10.8.8 18.1 3.4 5 1.8 10 3.9 11.2 4.7 1.2.8 2.9 1.4 3.8 1.4.9 0 2.6.6 3.8 1.4 1.2.8 3.3 1.7 4.7 2.1 2 .5 2.2.4 1-.5-1.2-1-1.2-1.1.5-.5 1.1.4 3.3.8 4.9 1 2.9.2 2.9.2.8-1.5-2.2-1.8-16.2-6-20-6-1.2 0-2.2-.5-2.2-1 0-.6-.6-1-1.2-1-2.1.1-18.8-5.4-18.8-6.2 0-2.2 9.4-.7 19 3.3 3 1.2 6.4 2.5 7.5 3 1.1.4 5.6 1.7 10 2.9 10.2 2.6 20.7 6.9 19.9 8.2-.4.5-1.5.8-2.5.5-1.1-.3-1.7-.1-1.3.4.3.5 1.7.9 3.1.9 1.4 0 3.9.7 5.6 1.5 4.6 2 11.9 4.5 13.8 4.5 2 0 5.9 3.3 5.9 5 0 1 .3 1 1.5 0 .8-.7 1.5-.9 1.5-.6 0 .4.7 0 1.6-.9 1-.9 2.5-1.3 3.8-1 1.8.5 1.7.4-.4-.9-1.4-.9-4.1-1.5-6-1.4-1.9.1-4.5-.4-5.8-1.1-1.3-.7-4.5-1.9-7-2.6-8-2.3-12.2-4-12.2-4.8 0-1.2 9.8.3 16.7 2.5 3.4 1.1 7.1 1.8 8.2 1.5 1.1-.3 2.1-.1 2.3.4.2.5 1.8 1.1 3.6 1.5 3.1.6 3.2.6 3.2-3 0-2-.4-3.6-1-3.6-.5 0-1 .4-1 1 0 .5-.7 1-1.5 1s-1.5-.5-1.5-1c0-.6-.6-1-1.4-1-.8 0-1.6-.5-1.8-1.1-.3-.8-1.4-.8-4.1-.1-2 .6-3.5.7-3.2.2.8-1.3-1.8-2.6-8-3.9-3.3-.7-8-1.9-10.5-2.7-2.5-.8-5.6-1.4-7-1.3-1.4.1-3.8-.3-5.3-1-1.6-.6-3.3-.8-3.9-.5-.5.3-2.8-.3-5.1-1.4-5.6-2.7-25.8-9.2-28.5-9.2-1.1 0-2.4-.5-2.7-1-.8-1.3 5.8-1.3 7.1 0 .5.5 4.5 1.5 8.9 2.1 4.4.6 9.5 1.7 11.4 2.5 1.8.8 4.8 1.4 6.6 1.4 1.7 0 4.6.7 6.4 1.6 2.5 1.2 5.3 1.5 13.4 1.1 5.6-.3 10.4-.6 10.6-.6.2-.1-.4-1-1.4-2.1-1.7-1.9-1.7-2 .1-2 1.9-.1 1.9-.1 0-1.5-2.5-1.9-3.7-1.9-3 0 .4.9 0 1.5-.9 1.5-1.9 0-12.3-5.5-15.2-8-1.1-.9-2.9-2.3-4-2.9-1.8-1.1-1.8-1.1.5-.5 1.4.4 2.7 1 3 1.4.3.4 2.1 1.1 4 1.5 1.9.4 4.3 1.4 5.3 2.3.9.8 1.7 1.2 1.7.8 0-1.6-4.9-4.8-14.8-9.6-5.7-2.7-10.9-5-11.6-5-.8 0-1.8-.6-2.4-1.3-.6-.6-3.3-2.1-6.1-3.2-5.3-2-7.5-4.5-4.1-4.5 1.1 0 3.5.8 5.5 1.7 3.4 1.6 3.6 1.6 4.9-.3 1.3-1.7 1.2-2-1.6-2.9-1.6-.6-3.4-1.8-3.9-2.8-.6-.9-2-1.7-3.3-1.7-1.3 0-2.3-.6-2.3-1.5 0-.8.7-1.5 1.4-1.5 2.7 0 .2-1.9-3.2-2.6-2-.3-3.8-1-4.1-1.5-.9-1.5-3.4-1-3.4.6zm5.5 10.5c.3.5.2 1-.4 1-.5 0-1.3-.5-1.6-1-.3-.6-.2-1 .4-1 .5 0 1.3.4 1.6 1zm-7 5c.3.5 2.1 1 3.9 1 1.8 0 4.5.9 5.9 2 1.4 1.1 2.8 2 3.2 2 .4 0 1.8.9 3.2 2 2.1 1.6 2.9 1.8 4.1.8 1.2-1.1 1.6-1.1 2 0 .8 2.4 3.1 3.9 5.4 3.5 1.3-.2 3.2.2 4.2 1 1.8 1.4 1.8 1.5-1.7 2.6-5.3 1.8-5.1 4.5.2 3.6 3.2-.5 4.3-.3 6 1.4 1.2 1.2 2.8 2.1 3.6 2.1 2 0 .8 2.8-1.5 3.5-2.3.7-7-.4-7-1.7 0-.5.4-.6 1-.3.5.3 1.8.2 2.7-.4 1.5-.8 1.6-1 .3-1.4-4.3-1.4-6-1.4-6-.1 0 2.1-12.8 1.3-14.5-.9-.7-.9-2.3-1.7-3.6-1.7-3.5 0-11.4-2.6-11.2-3.7.1-.5-3.3-1-7.5-1.1-8.5-.3-15.2-1.7-15.2-3.3 0-1.4 2-2 9.1-2.4 3.5-.2 7.8-.6 9.4-.9 1.7-.2 3.3-.5 3.8-.5 1.7-.2.4-1.9-2.8-3.7-1.9-1-3.5-2.4-3.5-3.1 0-1.5 5.6-1.8 6.5-.3zm-12.4 18.2c.9 0 1.6.6 1.6 1.4 0 1.7-2.8 1.3-8.1-1.2l-3.1-1.4 4 .6c2.2.4 4.7.7 5.6.6zm-14.6 3.5c4.5.5 14.5 3.5 14.5 4.3 0 1.1-17.7.7-18.7-.4-.4-.5.4-.6 2-.2 4.1 1 3-1.4-1.2-2.9-1.8-.6-2.9-1.4-2.5-1.7.4-.4 1.2-.4 1.7-.1.6.4 2.5.8 4.2 1zm-11 1.3c1.8.8 1.7.9-.7.9-1.6.1-2.8-.4-2.8-.9 0-1.2.8-1.2 3.5 0zm62.5 1c0 .5-.4 1-1 1-.5 0-1-.5-1-1 0-.6.5-1 1-1 .6 0 1 .4 1 1zm-13.3 4.6c-.3.3-1.2.4-1.9.1-.8-.3-.5-.6.6-.6 1.1-.1 1.7.2 1.3.5z"/><path d="M574.3 372.3c.3.9.1 1.8-.6 2.1-.7.2.2.2 1.9-.1 2.7-.4 3.3-.1 3.9 1.8l.8 2.4.9-2.4c1.1-3 .3-3.9-4.1-4.7-2.9-.6-3.3-.5-2.8.9zm20.7-28.5c0 1.4 2.8 2.3 8 2.7l4.5.3-4.4-1.4c-2.4-.7-5.2-1.6-6.2-1.9-1.1-.4-1.9-.2-1.9.3zm7 7.2c0 .5.7 1 1.6 1 .8 0 1.2-.5.9-1-.3-.6-1-1-1.6-1-.5 0-.9.4-.9 1zm-10.5 8.9c.3.5-.3 1.2-1.2 1.4-1.4.4-1.3.5.5.6 1.3.1 2.2-.5 2.2-1.4 0-.8-.5-1.5-1.1-1.5-.5 0-.8.4-.4.9zm21.5 2.4c0 .8.7 1.7 1.5 2.1.8.3 1.5.3 1.5 0s-.7-1.2-1.5-2c-1.3-1.3-1.5-1.3-1.5-.1zm-15 .9c0 1 .6 1.8 1.4 1.8.7 0 2.6 1 4.1 2.2 1.8 1.4 4 2.1 6.2 2 3.2-.3 4.6 1.2 2.1 2-.7.3 1 1.3 3.7 2.3 2.8 1 5.5 2.2 6 2.5.6.4 2.3 1 3.8 1.4 1.6.4 5.2 1.8 8 3.1 6.2 3 6.7 3.1 6.7.4 0-1.5-.5-1.9-1.5-1.5-1.6.6-11.8-2.3-12.3-3.6-.2-.4-1-.8-1.8-.8s-1.1-.6-.8-1.5c.4-.8-.1-1.7-1-2.1-.9-.3-1.3-1-1-1.5.5-.8-3.2-1.4-6.3-1-.7.1-1.3-.3-1.3-.9 0-1.3-4.4-3.1-8.5-3.5-4.4-.5-5.9-.9-6.7-2-.4-.6-.8-.2-.8.7zm25 .7c0 1.2.8 1.7 4.5 2.5l3 .7-3-2.1c-3.3-2.2-4.5-2.5-4.5-1.1z"/><path d="M628 373.8c0 1.2 1.9 2.6 2.6 1.9.2-.2-.2-1-1.1-1.7-.9-.8-1.5-.8-1.5-.2zm7.8 3.9c.7.3 1.6.2 1.9-.1.4-.3-.2-.6-1.3-.5-1.1 0-1.4.3-.6.6zm-16 6c.7.3 1.6.2 1.9-.1.4-.3-.2-.6-1.3-.5-1.1 0-1.4.3-.6.6zm-.8 3.3c0 1.5.7 2 2.6 2 2 0 2.5-.4 2-1.6-.3-.9-.6-1.8-.6-2 0-.2-.9-.4-2-.4-1.3 0-2 .7-2 2zm-86.6 3.5c.8.8 2.1 1.5 3 1.5.8 0 1.8.4 2.1 1 .7 1.2 5.5 1.4 5.5.2 0-.9-8.6-4.2-10.8-4.2-1 0-1 .3.2 1.5zM560 395c0 .9 1 1.3 6.2 2.4 2.1.5 2.6.3 2.2-.8-.3-.8-1.1-1.3-1.8-1-.7.3-2.5 0-3.9-.5-1.5-.6-2.7-.7-2.7-.1zm6.6 4.9c-1.4.6-1 1 2.4 2 2.3.7 4.8 1.5 5.6 1.8 1 .4 1.2 0 .8-1.1-.3-.9-1.6-1.6-2.8-1.6-1.2 0-2.6-.4-3.1-.9-.6-.5-1.8-.6-2.9-.2zm26.5.5c.2.2 1.8.6 3.4 1 2.2.5 2.6.4 1.5-.4-1.4-.9-5.9-1.5-4.9-.6zm-39.1 1c0 .2.7.7 1.6 1 .8.3 1.2.2.9-.4-.6-1-2.5-1.4-2.5-.6zm-90.2 3.7c-5.4 3.6-5.8 4.3-2.3 4.5 1.4.1 2.2-.2 1.9-.7-.3-.5.7-.9 2.3-.9 1.5 0 3.5-.4 4.3-1 1.2-.8 1.2-1-.3-1.6-1.7-.6-1.7-.7 0-2 3.7-2.8-1.2-1.4-5.9 1.7zm29.2-.7c0 .2.7.7 1.6 1 .8.3 1.2.2.9-.4-.6-1-2.5-1.4-2.5-.6zm86 .6c0 .5.4 1 .9 1s1.8.3 2.8.6c1.6.6 1.6.5-.2-.9-2.3-1.9-3.5-2.1-3.5-.7zm-72.1 5.3c.7.9 2 1.7 2.8 1.7.8 0 2.7.7 4.3 1.5 2.6 1.3 2.9 1.3 2.4 0-.3-.8-2-1.9-3.7-2.4-1.8-.5-4.1-1.2-5.2-1.7-1.8-.7-1.8-.6-.6.9zm-55 2.7c-1.6 1-1.5 1.2 3 2.8 4.4 1.5 4.8 1.1 1.3-1.5-1.9-1.4-3.4-1.8-4.3-1.3zm18.1-.6c0 .2.7.7 1.6 1 .8.3 1.2.2.9-.4-.6-1-2.5-1.4-2.5-.6zm-22.3 3.3c-1.3 1.2-.7 2.1 1.8 2.7 1.6.4 2.3 1.1 1.9 1.8-.5.8-.2.9 1 .5 1-.4 2.4-.1 3.2.8.9.8 2.5 1.5 3.7 1.5 2 0 2 0 .1-1.5-1-.8-2.5-1.5-3.1-1.5-.7 0-1.3-.5-1.3-1 0-.6-.6-1-1.4-1-.7 0-1.9-.7-2.6-1.5-1.4-1.6-2.3-1.9-3.3-.8zm140.8 2.4c-.3.4.6 1.1 2 1.5 3.4.9 4 .2.9-1.3-1.3-.6-2.6-.7-2.9-.2zm48.5-.7c0 .2.7.6 1.5 1 .8.3 1.5.1 1.5-.4 0-.6-.7-1-1.5-1s-1.5.2-1.5.4zm-194 1c0 .2.7.6 1.5 1 .8.3 1.5.1 1.5-.4 0-.6-.7-1-1.5-1s-1.5.2-1.5.4zm82 .6c.8.5 2 1 2.5 1 .6 0 .3-.5-.5-1s-1.9-1-2.5-1c-.5 0-.3.5.5 1zm8.8-.3c.6.2 1.8.2 2.5 0 .6-.3.1-.5-1.3-.5-1.4 0-1.9.2-1.2.5zm91.2.2c0 1.2 6.9 3.1 7.5 2 .3-.4-.7-1.1-2.2-1.5-1.5-.3-3.4-.7-4-1-.7-.2-1.3 0-1.3.5zm-197.3.7c-.8.8.1 2.4 1.4 2.4.5 0 .9-.7.9-1.5 0-1.5-1.2-2-2.3-.9zm110.3 1.3c0 .5 1.3 1.2 3 1.6 1.6.4 3.2 1.1 3.5 1.6.4.5 2.7.9 5.3.9 3.4 0 4.3-.3 3.2-1-.8-.5-2.5-1-3.6-1-1.2 0-3.5-.7-5-1.5-3.3-1.7-6.4-2-6.4-.6zm20.8-.2c.6.2 1.8.2 2.5 0 .6-.3.1-.5-1.3-.5-1.4 0-1.9.2-1.2.5zm-28.8 1.6c1.8 1.8 8 3.3 8 1.9 0-.5-1.2-1.2-2.7-1.5-1.6-.3-3.7-.9-4.8-1.3-1.8-.6-1.8-.5-.5.9zm-90.6 1.2c2.7 2.1 5.3 2 3.6 0-.7-.8-2.2-1.5-3.4-1.5-2.1.1-2.1.1-.2 1.5zm197.1-.5c2.7 1.2 4.3 1.2 2.5 0-.8-.5-2.2-.9-3-.9-1 0-.8.3.5.9zm-315.7 1.7c.7.3 1.6.2 1.9-.1.4-.3-.2-.6-1.3-.5-1.1 0-1.4.3-.6.6z"/></svg>